<svg width="64" height="64" viewBox="0 0 64 64" fill="none" xmlns="http://www.w3.org/2000/svg">
  <defs>
    <radialGradient id="blueGlow" cx="0" cy="0" r="1" gradientUnits="userSpaceOnUse" gradientTransform="translate(23 34) rotate(27) scale(29 24)">
      <stop stop-color="#38BDF8"/>
      <stop offset="0.5" stop-color="#2563EB"/>
      <stop offset="0.78" stop-color="#7C3AED"/>
      <stop offset="1" stop-color="#111827" stop-opacity="0"/>
    </radialGradient>
    <linearGradient id="mark" x1="14" y1="13" x2="50" y2="51" gradientUnits="userSpaceOnUse">
      <stop stop-color="#22D3EE"/>
      <stop offset="0.45" stop-color="#0EA5E9"/>
      <stop offset="0.75" stop-color="#2563EB"/>
      <stop offset="1" stop-color="#8B5CF6"/>
    </linearGradient>
    <filter id="glow" x="4" y="5" width="56" height="56" filterUnits="userSpaceOnUse" color-interpolation-filters="sRGB">
      <feDropShadow dx="0" dy="0" stdDeviation="3" flood-color="#0EA5E9" flood-opacity="0.95"/>
      <feDropShadow dx="0" dy="0" stdDeviation="5" flood-color="#7C3AED" flood-opacity="0.55"/>
    </filter>
  </defs>
  <rect width="64" height="64" rx="15" fill="#070B13"/>
  <rect width="64" height="64" rx="15" fill="url(#blueGlow)" opacity="0.8"/>
  <g filter="url(#glow)">
    <path d="M17.2 25.5C19.8 24.4 22.2 23.1 24.6 21.8C27 20.4 28.9 18.6 31.4 18C33.2 17.6 35 17.9 35.6 19.2C36.2 20.6 35.7 22.3 35.2 24.1L29 46.7C28.5 48.9 28.6 50.5 30.6 50.9C32.5 51.2 34.1 50.2 35.1 48.3L39.4 40.3C41 37.1 44.9 37.5 45.7 41L47.8 48.5C48.2 50.5 49.6 51.6 51.5 51.1C53.4 50.6 54.1 49 53.8 46.7L49.8 22.1C49.2 19.1 47.3 17.4 44.4 17.4C42.4 17.4 40.5 18 38.5 18.6C35.9 19.5 33.2 20.3 30.5 20.1C27.8 19.8 25.3 19.3 22.6 19.3C19.6 19.3 17.7 21.2 17.2 25.5Z" fill="url(#mark)" stroke="#7DD3FC" stroke-width="1.35" stroke-linejoin="round"/>
    <path d="M13.9 31.4L18.2 29.8L22.3 28.9L16.6 48.2C16 50.6 17.1 52.4 19.8 52.7C22.4 53 24.8 52.9 27.3 52.4" stroke="#38BDF8" stroke-width="5" stroke-linecap="round" stroke-linejoin="round"/>
    <path d="M32.5 33.6C34.5 33.6 36.1 35.2 36.1 37.2V48.8" stroke="#7DD3FC" stroke-width="4.2" stroke-linecap="round"/>
    <path d="M33.5 27.5L35.5 31.8L39.8 33.8L35.5 35.8L33.5 40L31.5 35.8L27.3 33.8L31.5 31.8L33.5 27.5Z" fill="#C4B5FD"/>
  </g>
</svg>
