<svg width="64" height="64" viewBox="0 0 64 64" fill="none" xmlns="http://www.w3.org/2000/svg">
  <defs>
    <linearGradient id="brand" x1="12" y1="14" x2="52" y2="51" gradientUnits="userSpaceOnUse">
      <stop stop-color="#19D3FF"/>
      <stop offset="0.58" stop-color="#1687FF"/>
      <stop offset="1" stop-color="#7B4DFF"/>
    </linearGradient>
  </defs>
  <rect width="64" height="64" rx="15" fill="#050816"/>
  <path d="M14 26L23 23.5L30 23L22.5 41.5C21.5 44 22.8 45.7 25.8 46C29.2 46.2 32.5 46 36 45.2" stroke="url(#brand)" stroke-width="5.2" stroke-linecap="round" stroke-linejoin="round"/>
  <path d="M27 21.8C31.1 19.3 36 16.5 40.4 16.5C44.4 16.5 46.8 19.3 46 23.5L40.8 43.4C40 46.2 41.6 48 44.5 47.2C47.1 46.6 48.8 44.8 49.6 41.8L52.1 32.8C53.1 28.6 58.8 28.4 60.5 32.2" stroke="url(#brand)" stroke-width="4.3" stroke-linecap="round" stroke-linejoin="round"/>
  <path d="M35.8 17C40.4 17.8 45 18.5 49.6 17.5" stroke="#2CBFFF" stroke-width="2" stroke-linecap="round"/>
  <path d="M36.5 27.3L38.8 32.1L43.6 34.4L38.8 36.7L36.5 41.5L34.2 36.7L29.4 34.4L34.2 32.1L36.5 27.3Z" fill="#82E8FF"/>
</svg>
