<svg width="512" height="512" viewBox="0 0 512 512" fill="none" xmlns="http://www.w3.org/2000/svg">
  <defs>
    <linearGradient id="brand" x1="94" y1="110" x2="414" y2="406" gradientUnits="userSpaceOnUse">
      <stop stop-color="#19D3FF"/>
      <stop offset="0.58" stop-color="#1687FF"/>
      <stop offset="1" stop-color="#7B4DFF"/>
    </linearGradient>
  </defs>
  <rect width="512" height="512" rx="112" fill="#050816"/>
  <path d="M110 208L185 188L238 182L178 332C170 353 181 366 205 368C232 370 260 368 287 361" stroke="url(#brand)" stroke-width="42" stroke-linecap="round" stroke-linejoin="round"/>
  <path d="M216 174C249 154 288 132 323 132C356 132 375 154 368 188L326 348C320 371 333 384 356 378C377 373 391 358 397 335L417 262C425 229 470 227 484 258" stroke="url(#brand)" stroke-width="34" stroke-linecap="round" stroke-linejoin="round"/>
  <path d="M286 136C323 143 360 148 397 140" stroke="#2CBFFF" stroke-width="16" stroke-linecap="round"/>
  <path d="M292 218L310 257L349 275L310 293L292 332L274 293L235 275L274 257L292 218Z" fill="#82E8FF"/>
</svg>
