<svg width="1536" height="512" viewBox="0 0 1536 512" fill="none" xmlns="http://www.w3.org/2000/svg">
  <defs>
    <linearGradient id="wall" x1="0" y1="0" x2="1536" y2="512" gradientUnits="userSpaceOnUse">
      <stop stop-color="#6B7280"/>
      <stop offset="0.24" stop-color="#20262E"/>
      <stop offset="0.52" stop-color="#060A12"/>
      <stop offset="0.8" stop-color="#27313B"/>
      <stop offset="1" stop-color="#7B8188"/>
    </linearGradient>
    <radialGradient id="leftGlow" cx="0" cy="0" r="1" gradientUnits="userSpaceOnUse" gradientTransform="translate(250 250) rotate(10) scale(238 145)">
      <stop stop-color="#21D4FD" stop-opacity="0.9"/>
      <stop offset="0.55" stop-color="#1687FF" stop-opacity="0.52"/>
      <stop offset="0.82" stop-color="#7B4DFF" stop-opacity="0.35"/>
      <stop offset="1" stop-color="#000000" stop-opacity="0"/>
    </radialGradient>
    <radialGradient id="rightGlow" cx="0" cy="0" r="1" gradientUnits="userSpaceOnUse" gradientTransform="translate(1260 248) rotate(7) scale(242 132)">
      <stop stop-color="#21D4FD" stop-opacity="0.78"/>
      <stop offset="0.6" stop-color="#1687FF" stop-opacity="0.5"/>
      <stop offset="0.86" stop-color="#7B4DFF" stop-opacity="0.36"/>
      <stop offset="1" stop-color="#000000" stop-opacity="0"/>
    </radialGradient>
    <linearGradient id="brand" x1="144" y1="154" x2="364" y2="340" gradientUnits="userSpaceOnUse">
      <stop stop-color="#19D3FF"/>
      <stop offset="0.58" stop-color="#1687FF"/>
      <stop offset="1" stop-color="#7B4DFF"/>
    </linearGradient>
    <linearGradient id="ai" x1="1188" y1="160" x2="1390" y2="280" gradientUnits="userSpaceOnUse">
      <stop stop-color="#21D4FD"/>
      <stop offset="0.58" stop-color="#1687FF"/>
      <stop offset="1" stop-color="#645BFF"/>
    </linearGradient>
    <filter id="brandGlow" x="56" y="80" width="420" height="350" filterUnits="userSpaceOnUse" color-interpolation-filters="sRGB">
      <feDropShadow dx="0" dy="0" stdDeviation="18" flood-color="#1687FF" flood-opacity="0.85"/>
      <feDropShadow dx="0" dy="0" stdDeviation="34" flood-color="#7B4DFF" flood-opacity="0.42"/>
    </filter>
    <filter id="aiGlow" x="1100" y="118" width="384" height="268" filterUnits="userSpaceOnUse" color-interpolation-filters="sRGB">
      <feDropShadow dx="0" dy="0" stdDeviation="18" flood-color="#1687FF" flood-opacity="0.72"/>
      <feDropShadow dx="0" dy="0" stdDeviation="32" flood-color="#7B4DFF" flood-opacity="0.4"/>
    </filter>
  </defs>
  <rect width="1536" height="512" fill="url(#wall)"/>
  <rect width="1536" height="512" fill="url(#leftGlow)"/>
  <rect width="1536" height="512" fill="url(#rightGlow)"/>
  <g filter="url(#brandGlow)">
    <path d="M144 220L193 207L227 203L188 298C184 310 190 317 204 319C220 320 236 319 252 315" stroke="url(#brand)" stroke-width="28" stroke-linecap="round" stroke-linejoin="round"/>
    <path d="M213 198C234 186 258 172 281 172C301 172 313 185 309 204L282 305C279 319 287 326 301 322C314 319 322 310 326 296L338 254C343 235 369 234 376 252L393 296C398 310 410 317 425 312" stroke="url(#brand)" stroke-width="23" stroke-linecap="round" stroke-linejoin="round"/>
    <path d="M257 174C281 178 306 182 330 176" stroke="#2CBFFF" stroke-width="10" stroke-linecap="round"/>
    <path d="M292 226L303 250L327 261L303 272L292 296L281 272L257 261L281 250L292 226Z" fill="#82E8FF"/>
  </g>
  <text x="520" y="300" font-family="Inter, Avenir Next, Arial, Helvetica, sans-serif" font-size="160" font-weight="850" letter-spacing="-8" fill="#020617" stroke="#0B1220" stroke-width="1.5">dental</text>
  <g filter="url(#aiGlow)">
    <text x="1170" y="300" font-family="Inter, Avenir Next, Arial, Helvetica, sans-serif" font-size="164" font-weight="900" letter-spacing="-5" fill="url(#ai)" stroke="#25C7FF" stroke-width="1.2">AI</text>
  </g>
  <text x="1214" y="365" font-family="Inter, Avenir Next, Arial, Helvetica, sans-serif" font-size="58" font-weight="700" letter-spacing="12" fill="#111827" opacity="0.86">.com</text>
</svg>
