<svg width="760" height="180" viewBox="0 0 760 180" fill="none" xmlns="http://www.w3.org/2000/svg">
  <defs>
    <linearGradient id="brand" x1="32" y1="36" x2="178" y2="146" gradientUnits="userSpaceOnUse">
      <stop stop-color="#19D3FF"/>
      <stop offset="0.58" stop-color="#1687FF"/>
      <stop offset="1" stop-color="#7B4DFF"/>
    </linearGradient>
    <linearGradient id="ai" x1="626" y1="54" x2="735" y2="116" gradientUnits="userSpaceOnUse">
      <stop stop-color="#21D4FD"/>
      <stop offset="0.58" stop-color="#1687FF"/>
      <stop offset="1" stop-color="#645BFF"/>
    </linearGradient>
  </defs>
  <path d="M52 74L87 65L111 62L83 130C80 138 84 143 94 144C106 145 119 144 131 141" stroke="url(#brand)" stroke-width="19" stroke-linecap="round" stroke-linejoin="round"/>
  <path d="M101 59C116 50 134 40 151 40C166 40 175 50 172 65L152 137C149 147 155 153 165 150C174 148 180 141 183 131L192 98C196 83 216 82 222 96L235 130C239 141 248 146 260 142" stroke="url(#brand)" stroke-width="15" stroke-linecap="round" stroke-linejoin="round"/>
  <path d="M133 42C150 45 167 48 184 45C204 42 222 34 238 46C251 56 254 73 249 94L236 141" stroke="#2CBFFF" stroke-width="7" stroke-linecap="round"/>
  <path d="M160 76L168 93L185 101L168 109L160 126L152 109L135 101L152 93L160 76Z" fill="#82E8FF"/>
  <text x="300" y="114" font-family="Inter, Avenir Next, Arial, Helvetica, sans-serif" font-size="76" font-weight="850" letter-spacing="-3.5" fill="#050816">dental</text>
  <text x="618" y="114" font-family="Inter, Avenir Next, Arial, Helvetica, sans-serif" font-size="78" font-weight="900" letter-spacing="-2" fill="url(#ai)">AI</text>
  <text x="665" y="145" font-family="Inter, Avenir Next, Arial, Helvetica, sans-serif" font-size="25" font-weight="800" letter-spacing="4" fill="#1F2937">.com</text>
</svg>
